<svg enable-background="new 0 0 768 768" viewBox="0 0 768 768" xmlns="http://www.w3.org/2000/svg"><path d="m383.94 236.99c80.61.01 146 65.46 145.92 146.08s-65.39 145.93-145.94 145.92c-83.7-.01-145.99-65.47-145.92-146.08s65.39-145.92 145.94-145.92z" fill="#fff"/><path d="m560.95 264.14c-27.42.29-53.44 4.18-78.62 11.81 11.78 10.99 21.66 24.43 29.64 40.33 8.78 17.54 13.38 38.19 13.78 61.95 16.83 5.37 34.43 11.91 52.91 19.65 50.06 20.96 105.34 50.15 167.59 88.55 9.21-32.57 14.15-66.94 14.18-102.46.02-26.03-2.6-51.46-7.61-76.01-72.4-29.94-136.03-44.41-191.87-43.82z" fill="#3f3f3f"/><path d="m267.08 447.96c7.97 15.31 17.88 28.07 29.76 38.27 13.22 11.37 27.66 19.66 43.31 24.86 15.65 5.22 30.74 7.83 45.27 7.83 17.51 0 34.18-3.54 50.02-10.62 15.84-7.07 29.71-16.95 41.64-29.62 11.92-12.65 21.42-27.47 28.5-44.43 4.65-11.13 7.76-22.71 9.36-34.73-34.13-10.06-65.02-15.16-93.36-15.44-71.25-.71-115.47 29.56-154.5 63.88z" fill="#3f3f3f"/><path d="m524.31 402.39c-1.65 11.85-4.68 23.31-9.12 34.39-7.34 18.31-17.3 34.34-29.9 48.11-12.6 13.78-27.34 24.59-44.22 32.43-16.89 7.84-34.72 11.9-53.51 12.17-15.59.22-31.82-2.33-48.69-7.7-16.87-5.35-32.5-14.02-46.86-26.02-12.98-10.83-23.87-24.47-32.69-40.91-4.64 4.19-9.23 8.42-13.8 12.63-30.47 28.09-59.26 54.62-98.51 67.38-21.12 6.87-43.28 9.06-67.74 6.7-12.66-1.22-25.82-3.65-39.62-7.32-1.06-2.4-2.09-4.81-3.09-7.24 15.19 4.3 29.55 7.09 43.3 8.42 23.6 2.27 44.94.17 65.24-6.43 37.97-12.34 66.27-38.43 96.24-66.05 4.99-4.6 9.99-9.21 15.06-13.78-.93-1.91-1.81-3.86-2.65-5.83-.11.1-.22.2-.33.29-29.38 26.41-57.13 51.36-95.01 63.47-20.38 6.52-41.76 8.65-65.33 6.53-20.78-1.87-42.91-7.01-67.18-15.59-.79-2.45-1.55-4.9-2.29-7.37 52.56 19.32 95.1 22.65 132.92 10.57 36.61-11.7 63.89-36.22 92.76-62.18.68-.61 1.35-1.22 2.03-1.83-2.32-6.36-4.21-13.04-5.66-20.06-18.94 6.79-39.22 10.57-61.72 9.91-49.95-1.46-106.88-24.8-174.99-72.33.17-2.37.37-4.74.59-7.1 68.33 48.18 125.1 71.82 174.58 73.27 21.94.65 41.8-3.15 60.39-9.94-1.47-8.89-2.29-18.27-2.43-28.16-.26-18.38 2.97-36.23 9.73-53.52 6.74-17.29 16.33-32.62 28.73-46 12.4-13.37 27.44-24.18 45.12-32.44 17.67-8.25 37.31-12.53 58.9-12.84 15.99-.23 32.22 2.54 48.7 8.3 15.9 5.56 30.43 13.85 43.62 24.84 26.86-8.54 54.63-12.89 83.98-13.2 54.22-.57 113.88 12.31 182.35 39.39 2.65 1.05 5.32 2.13 8 3.23-37.8-167.92-187.92-293.49-367.26-293.5-207.82-.02-376.34 168.48-376.51 376.47s168.52 376.87 376.48 376.9c164.72.02 304.74-105.84 355.83-253.33-57.87-35.36-110.47-63.15-157.08-82.95-20.47-8.7-39.88-15.94-58.36-21.78z" fill="#3f3f3f"/><path d="m525.72 384.69c-.09 3.86-.31 7.69-.68 11.47 19.01 5.96 38.98 13.39 60.03 22.33 47.32 20.1 99.11 47.37 156.72 82.57.92-2.8 1.8-5.62 2.65-8.45-62.47-38.53-118.82-68.39-168.17-89.05-17.63-7.39-34.45-13.66-50.55-18.87z" fill="#3f3f3f"/><path d="m435.16 288.16c10.3-5.13 20.69-9.59 31.2-13.4-10.6-8.15-22.12-14.5-34.57-19.06-15.28-5.59-30.37-8.38-45.27-8.38-20.12 0-38.47 3.73-55.05 11.18-16.57 7.46-30.73 17.32-42.47 29.61-11.73 12.3-20.87 26.46-27.39 42.48s-9.77 32.6-9.77 49.73c0 9.48.67 18.47 2 26.98 31.41-13.39 59.48-34.97 88.51-57.28 28.42-21.83 57.8-44.41 92.81-61.86z" fill="#3f3f3f"/><path d="m261.65 436.29c.81 2.02 1.67 4 2.59 5.95 39.12-34.25 83.58-64.33 154.81-64.33.85 0 1.71 0 2.57.01 28.62.29 59.72 5.37 93.99 15.39.34-3.82.52-7.69.56-11.6-34.49-10.42-65.56-15.71-93.95-16.05-75.82-.9-119.81 34.26-160.57 70.63z" fill="#3f3f3f"/><path d="m346.12 354.91c-29.81 22.91-58.63 45.06-91.16 58.66 1.15 5.74 2.62 11.23 4.41 16.5 40.6-36.1 84.74-70.61 159.95-70.61.99 0 1.97.01 2.97.02 28.46.34 59.49 5.54 93.82 15.76-.57-20.23-4.55-38-11.94-53.32-8.01-16.57-18.26-30.36-30.74-41.35-.48-.42-.97-.84-1.46-1.26-11.49 3.99-22.83 8.77-34.05 14.36-34.49 17.19-63.63 39.58-91.8 61.24z" fill="#3f3f3f"/><g fill="#fff"><path d="m753.6 308.27c-.49-2.46-1.01-4.91-1.55-7.35-.27-.11-.54-.22-.82-.33.55 2.44 1.08 4.89 1.59 7.36.26.11.52.21.78.32z"/><path d="m184.15 420.93c-49.48-1.45-106.25-25.09-174.58-73.27-.22 2.36-.41 4.73-.59 7.1 68.11 47.53 125.04 70.87 174.99 72.33 22.5.66 42.79-3.12 61.72-9.91-.42-2.04-.81-4.1-1.15-6.19-18.59 6.79-38.44 10.59-60.39 9.94z"/><path d="m560.88 257.97c-29.34.31-57.11 4.66-83.98 13.2.48.4.96.79 1.44 1.2 1.35 1.16 2.68 2.36 3.98 3.58 25.18-7.63 51.2-11.52 78.62-11.81 55.84-.59 119.47 13.89 191.87 43.81-.5-2.46-1.04-4.91-1.59-7.36-2.68-1.09-5.35-2.18-8-3.23-68.46-27.07-128.12-39.96-182.34-39.39z"/><path d="m739.87 507.19c.7-2.01 1.39-4.03 2.06-6.05-.05-.03-.09-.05-.14-.08-.66 2.03-1.35 4.05-2.04 6.06.04.02.08.04.12.07z"/><path d="m525.05 396.16c-.2 2.09-.45 4.17-.73 6.23 18.48 5.84 37.89 13.08 58.35 21.77 46.61 19.8 99.21 47.59 157.08 82.95.7-2.01 1.38-4.03 2.04-6.06-57.6-35.19-109.39-62.46-156.72-82.57-21.05-8.93-41.01-16.36-60.02-22.32z"/><path d="m256.42 449.19c-5.07 4.57-10.08 9.18-15.06 13.78-29.97 27.62-58.27 53.71-96.24 66.05-20.3 6.6-41.64 8.7-65.24 6.43-13.74-1.32-28.11-4.12-43.3-8.42 1.01 2.42 2.04 4.84 3.09 7.24 13.8 3.66 26.95 6.1 39.62 7.32 24.46 2.35 46.61.16 67.74-6.7 39.25-12.76 68.04-39.29 98.51-67.38 4.57-4.21 9.16-8.44 13.8-12.63-.94-1.76-1.87-3.54-2.77-5.37-.05-.11-.1-.22-.15-.32z"/><path d="m744.44 492.6c.05.03.11.07.16.1.62-2.05 1.24-4.11 1.83-6.17-.06-.04-.12-.07-.18-.11-.58 2.07-1.19 4.13-1.81 6.18z"/><path d="m419.31 359.47c-75.21 0-119.35 34.5-159.95 70.61.71 2.11 1.47 4.18 2.29 6.21 40.76-36.37 84.75-71.53 160.55-70.64 28.4.34 59.46 5.63 93.95 16.05 0-.46.02-.92.02-1.38 0-1.71-.03-3.4-.08-5.08-34.33-10.22-65.35-15.42-93.82-15.76-.98-.01-1.97-.01-2.96-.01z"/><path d="m578.66 397.87c-18.48-7.74-36.08-14.28-52.91-19.65 0 .18.01.35.01.53.03 1.99.01 3.97-.03 5.94 16.09 5.2 32.91 11.48 50.55 18.87 49.34 20.66 105.7 50.52 168.17 89.05.62-2.05 1.22-4.11 1.81-6.18-62.27-38.41-117.55-67.6-167.6-88.56z"/><path d="m249.32 439.07c-28.87 25.96-56.15 50.48-92.76 62.18-37.82 12.09-80.36 8.75-132.92-10.57.74 2.47 1.5 4.93 2.29 7.37 24.27 8.59 46.4 13.72 67.18 15.59 23.58 2.12 44.95-.01 65.33-6.53 37.87-12.11 65.63-37.06 95.01-63.47.11-.1.22-.2.33-.29-.85-2-1.66-4.04-2.41-6.12-.7.62-1.37 1.23-2.05 1.84z"/><path d="m482.33 275.95c-3.47 1.05-6.93 2.18-10.37 3.37.49.42.98.83 1.46 1.26 12.48 11 22.73 24.78 30.74 41.35 7.39 15.32 11.37 33.08 11.94 53.32 3.19.95 6.4 1.94 9.65 2.98-.41-23.76-5-44.41-13.78-61.95-7.98-15.91-17.86-29.34-29.64-40.33z"/><path d="m505.56 434.25c-7.08 16.96-16.58 31.77-28.5 44.43-11.93 12.67-25.8 22.55-41.64 29.62-15.84 7.08-32.5 10.62-50.02 10.62-14.52 0-29.61-2.61-45.27-7.83-15.64-5.2-30.09-13.49-43.31-24.86-11.88-10.2-21.79-22.96-29.76-38.27-2.6 2.29-5.18 4.59-7.74 6.91 8.82 16.44 19.71 30.08 32.69 40.91 14.36 12 29.99 20.67 46.86 26.02 16.87 5.36 33.1 7.92 48.69 7.7 18.79-.27 36.62-4.32 53.51-12.17 16.88-7.83 31.62-18.65 44.22-32.43 12.6-13.77 22.56-29.81 29.9-48.11 4.44-11.08 7.47-22.54 9.12-34.39-3.16-1-6.29-1.96-9.4-2.87-1.59 12.01-4.71 23.59-9.35 34.72z"/><path d="m254.95 413.57c-3.05 1.28-6.13 2.49-9.26 3.61 1.45 7.02 3.33 13.71 5.66 20.06 2.66-2.39 5.33-4.78 8.01-7.17-1.79-5.27-3.26-10.76-4.41-16.5z"/><path d="m251.85 380.32c0-17.13 3.25-33.71 9.77-49.73s15.65-30.18 27.39-42.48c11.73-12.29 25.89-22.15 42.47-29.61 16.57-7.45 34.93-11.18 55.05-11.18 14.9 0 29.99 2.79 45.27 8.38 12.45 4.56 23.97 10.91 34.57 19.06 3.5-1.27 7.02-2.47 10.55-3.59-13.19-10.99-27.73-19.28-43.62-24.84-16.48-5.76-32.72-8.53-48.7-8.3-21.59.31-41.23 4.59-58.9 12.84-17.68 8.26-32.71 19.06-45.12 32.44-12.4 13.37-21.99 28.71-28.73 46-6.75 17.29-9.99 35.14-9.73 53.52.14 9.89.96 19.27 2.43 28.16 3.14-1.15 6.24-2.38 9.31-3.69-1.34-8.51-2.01-17.49-2.01-26.98z"/><path d="m471.96 279.32c3.44-1.19 6.9-2.32 10.37-3.37-1.31-1.22-2.63-2.42-3.98-3.58-.48-.41-.96-.8-1.44-1.2-3.53 1.12-7.05 2.32-10.55 3.59 1.9 1.46 3.76 2.98 5.6 4.56z"/><path d="m253.85 407.31c-3.07 1.31-6.17 2.54-9.31 3.69.35 2.09.73 4.15 1.15 6.19 3.12-1.12 6.2-2.33 9.26-3.61-.41-2.06-.77-4.16-1.1-6.27z"/><path d="m264.42 442.64c-.06-.13-.12-.27-.18-.4-2.63 2.3-5.24 4.62-7.82 6.95.05.1.1.21.15.31.9 1.82 1.82 3.61 2.77 5.37 2.56-2.32 5.14-4.62 7.74-6.91-.91-1.75-1.8-3.51-2.66-5.32z"/><path d="m514.92 399.52c3.11.92 6.24 1.87 9.4 2.87.29-2.07.53-4.14.73-6.23-3.17-.99-6.32-1.95-9.44-2.86-.19 2.09-.42 4.16-.69 6.22z"/><path d="m516.18 380.32c0 .46-.01.92-.02 1.38 3.16.95 6.35 1.95 9.56 2.99.04-1.97.06-3.95.03-5.94 0-.18-.01-.35-.01-.53-3.24-1.04-6.46-2.03-9.65-2.98.06 1.68.09 3.37.09 5.08z"/><path d="m259.36 430.07c-2.68 2.39-5.35 4.78-8.01 7.17.76 2.07 1.56 4.11 2.41 6.12 2.62-2.36 5.25-4.72 7.89-7.07-.81-2.04-1.57-4.11-2.29-6.22z"/><path d="m229.11 648.21c-1.26 3.01-2.94 5.63-5.05 7.88s-4.58 4-7.38 5.25c-2.81 1.26-5.76 1.88-8.87 1.88-2.58 0-5.25-.46-8.03-1.39-2.77-.92-5.34-2.39-7.68-4.41-2.35-2.01-4.26-4.59-5.75-7.73s-2.23-6.82-2.23-11.05c0-3.04.58-5.98 1.73-8.82 1.16-2.84 2.78-5.35 4.86-7.53s4.59-3.93 7.53-5.25 6.19-1.98 9.76-1.98c2.64 0 5.32.49 8.03 1.49 2.71.99 5.17 2.46 7.38 4.41s4.03 4.39 5.45 7.33 2.13 6.39 2.13 10.36c.01 3.36-.62 6.55-1.88 9.56zm-8.07-16.9c-.49-2.58-1.3-4.95-2.43-7.13s-2.61-3.98-4.46-5.4-4.13-2.13-6.84-2.13c-2.18 0-4.13.66-5.85 1.98s-3.19 3.06-4.41 5.2c-1.22 2.15-2.15 4.56-2.78 7.24s-.94 5.4-.94 8.18c0 3.04.26 5.91.79 8.62s1.39 5.1 2.58 7.18 2.71 3.73 4.56 4.96c1.85 1.22 4.06 1.83 6.64 1.83s4.74-.77 6.49-2.33c1.75-1.55 3.17-3.5 4.26-5.85s1.88-4.87 2.38-7.58.74-5.22.74-7.53c.01-2.25-.24-4.66-.73-7.24z"/><path d="m280.27 646.97c-1.28 3.17-3.11 5.9-5.48 8.18s-5.27 4.06-8.7 5.35c-3.42 1.29-7.28 1.93-11.56 1.93-1.18 0-2.36-.03-3.51-.1-1.15-.06-2.36-.23-3.61-.5 0 .93.02 2.28.05 4.06s.06 3.67.1 5.65c.03 1.98.05 3.93.05 5.85v4.66c.13.6.49 1.04 1.09 1.34s1.3.53 2.13.69c.82.16 1.68.28 2.58.35.89.06 1.67.13 2.33.2v1.09h-24.48v-1.09c.66-.07 1.45-.18 2.38-.35.92-.16 1.8-.38 2.63-.64.83-.27 1.52-.6 2.08-.99.56-.4.84-.86.84-1.39v-54.9c0-.53-.05-.92-.15-1.19-.1-.26-.38-.56-.84-.89-.6-.33-1.55-.81-2.87-1.44s-2.38-1.11-3.17-1.44v-.6l14.67-5.75h.6v11.1l.1.2c.92-1.25 1.94-2.54 3.06-3.87 1.12-1.32 2.37-2.53 3.75-3.62s2.88-2 4.5-2.73c1.61-.73 3.37-1.09 5.29-1.09 3.1 0 5.78.63 8.05 1.88 2.27 1.26 4.15 2.91 5.63 4.96s2.59 4.36 3.31 6.94 1.09 5.19 1.09 7.83c-.01 3.71-.65 7.15-1.94 10.32zm-7.88-14.47c-.59-2.18-1.5-4.08-2.72-5.7s-2.76-2.91-4.64-3.86c-1.88-.96-4.06-1.44-6.56-1.44-1.71 0-3.24.31-4.59.94s-2.5 1.35-3.46 2.18c-.95.83-1.68 1.67-2.17 2.53s-.74 1.49-.74 1.88c0 1.32-.02 2.72-.05 4.21s-.05 2.79-.05 3.91v6.34c0 1.52.03 3.04.1 4.56.13 1.39.36 2.82.69 4.31s.89 2.84 1.68 4.06 1.88 2.21 3.26 2.97 3.16 1.14 5.33 1.14c1.91 0 3.75-.53 5.53-1.59s3.35-2.51 4.74-4.36c1.38-1.85 2.48-4.06 3.31-6.64.82-2.58 1.23-5.38 1.23-8.42 0-2.49-.29-4.84-.89-7.02z"/><path d="m314.21 622.09h-15.06v26.06c0 3.37.73 5.81 2.18 7.33s3.34 2.28 5.65 2.28c1.92 0 3.5-.31 4.76-.94 1.25-.63 2.34-1.6 3.27-2.92l.6.3c-.4.99-.94 2.03-1.64 3.12-.69 1.09-1.62 2.08-2.77 2.97-1.16.89-2.51 1.59-4.06 2.08s-3.39.74-5.5.74c-1.39 0-2.72-.21-3.99-.64s-2.4-1.06-3.38-1.88-1.78-1.75-2.4-2.77-.93-2.06-.93-3.12c0-6.21.03-12.11.1-17.69.06-5.58.1-10.55.1-14.91h-7.23v-1.09l14.28-13.58h.78v8.62h18.33z"/><path d="m317.92 662.92v-.99c.79-.06 1.59-.15 2.38-.25s1.5-.26 2.13-.5c.63-.23 1.16-.54 1.59-.94s.64-.89.64-1.49v-33.99c0-.53-.05-.99-.15-1.39s-.38-.76-.84-1.09c-.59-.4-1.3-.79-2.13-1.19s-1.7-.76-2.63-1.09v-.6l13.38-4.36h.6v44.3c.13.66.41 1.14.84 1.44s.94.51 1.54.64 1.24.22 1.93.25 1.37.11 2.03.25v.99h-21.31zm14.23-59.7c-1.03 1.03-2.3 1.54-3.82 1.54-1.45 0-2.71-.53-3.77-1.59s-1.59-2.31-1.59-3.77c0-1.52.51-2.77 1.54-3.77 1.02-.99 2.29-1.49 3.81-1.49s2.79.5 3.82 1.49c1.02.99 1.54 2.25 1.54 3.77s-.51 2.79-1.53 3.82z"/><path d="m398.71 662.92v-1.09c1.78-.13 3.14-.35 4.06-.64.92-.3 1.39-.97 1.39-2.03v-25.27c0-3.83-.68-6.89-2.04-9.17s-3.77-3.42-7.22-3.42c-2.19 0-4.02.58-5.48 1.73-1.46 1.16-2.99 2.63-4.58 4.41v32.01c0 .46.16.86.49 1.19s.76.58 1.29.74 1.11.3 1.73.4c.63.1 1.24.18 1.83.25v.89h-19.42v-1.09c1.78-.13 3.2-.35 4.26-.64 1.06-.3 1.59-.97 1.59-2.03v-25.37c0-3.9-.68-6.95-2.03-9.17-1.35-2.21-3.75-3.32-7.18-3.32-2.18 0-3.96.46-5.35 1.39-1.39.92-2.94 2.31-4.66 4.16v32.5c.13.66.36 1.14.69 1.44s.74.51 1.24.64c.49.13 1.04.22 1.63.25.6.03 1.22.11 1.88.25v.99h-19.22v-.99c1.52-.13 2.82-.43 3.91-.89s1.63-1.22 1.63-2.28v-33.89c0-.53-.05-.92-.15-1.19-.1-.26-.38-.56-.84-.89-.6-.33-1.29-.71-2.08-1.14s-1.59-.81-2.38-1.14v-.79l12.98-4.66h.59v10.7l.2.1c.66-1.19 1.51-2.43 2.57-3.72 1.05-1.29 2.27-2.44 3.65-3.47 1.38-1.02 2.88-1.88 4.49-2.58 1.61-.69 3.31-1.04 5.09-1.04 3.16 0 5.71 1.04 7.65 3.12s3.14 4.87 3.61 8.37h.3c.59-1.19 1.42-2.46 2.48-3.82 1.06-1.35 2.28-2.61 3.67-3.77s2.92-2.1 4.61-2.82c1.68-.73 3.42-1.09 5.2-1.09 3.83 0 6.72 1.39 8.67 4.16 1.95 2.78 2.92 6.34 2.92 10.7v29.53c0 .46.2.86.6 1.19.39.33.87.58 1.44.74.56.16 1.17.3 1.83.4s1.29.18 1.88.25v.89h-19.42z"/><path d="m462.33 656.88c-.53 1.19-1.23 2.26-2.08 3.22-.86.96-1.87 1.68-3.02 2.18-1.16.5-2.43.74-3.82.74-2.24 0-4.24-.66-5.99-1.98s-2.63-3.63-2.63-6.94l-.2-.1c-.53.86-1.24 1.82-2.13 2.87-.89 1.06-1.95 2.05-3.17 2.97-1.23.92-2.58 1.67-4.06 2.23-1.49.56-3.12.84-4.91.84-1.06 0-2.13-.15-3.22-.45s-2.08-.83-2.98-1.59c-.89-.76-1.62-1.73-2.18-2.92s-.84-2.64-.84-4.36c0-1.85.75-3.63 2.23-5.35 1.49-1.72 3.32-3.27 5.5-4.66s4.11-2.58 5.8-3.57c1.68-.99 3.15-1.83 4.41-2.53 1.25-.69 2.36-1.29 3.32-1.78s1.77-.94 2.43-1.34v-10.21c0-.13-.11-.45-.35-.94-.23-.5-.63-1.01-1.19-1.54s-1.34-1.01-2.33-1.44-2.28-.65-3.87-.65c-1.06 0-2.1.18-3.12.55-1.03.36-1.94.83-2.73 1.39s-1.42 1.12-1.88 1.68-.7 1.04-.7 1.44v4.46c0 .92-.48 1.75-1.43 2.48-.96.73-2 1.09-3.12 1.09-1.06 0-1.97-.38-2.73-1.14s-1.14-1.64-1.14-2.63c0-.79.2-1.52.6-2.18s.89-1.25 1.49-1.79c.6-.53 1.24-.99 1.93-1.39.7-.4 1.3-.76 1.84-1.09 1.72-.99 3.47-1.95 5.25-2.87 1.79-.92 3.48-1.72 5.1-2.38s3.1-1.19 4.46-1.58c1.35-.4 2.46-.6 3.32-.6 1.72 0 3.34.45 4.86 1.34s2.61 2 3.27 3.32c.27.46.43 1.27.5 2.43.06 1.16.1 2.3.1 3.42 0 2.38-.02 4.53-.05 6.44-.03 1.92-.05 3.77-.05 5.55s-.02 3.62-.05 5.5c-.04 1.88-.05 3.95-.05 6.19 0 2.97.51 4.94 1.53 5.9 1.03.96 2.2 1.44 3.52 1.44 1.52 0 2.64-.31 3.37-.94s1.22-1.44 1.49-2.43h.6c-.08 1.29-.38 2.51-.9 3.7zm-17.55-20.91c-1.19.86-2.67 1.77-4.46 2.73s-3.52 2-5.2 3.12-3.14 2.36-4.36 3.72c-1.22 1.35-1.84 2.89-1.84 4.61s.6 3.27 1.79 4.66 2.74 2.08 4.66 2.08c1.72 0 3.24-.2 4.56-.6s2.54-1.16 3.67-2.28c.79-.73 1.19-1.65 1.19-2.77v-15.27z"/><path d="m463.3 662.92v-1.09c3.04-.2 5.05-.51 6.04-.94s1.49-1.17 1.49-2.23v-56.98c0-.53-.05-.92-.15-1.19-.1-.26-.38-.56-.84-.89-.6-.33-1.49-.84-2.68-1.54s-2.18-1.21-2.97-1.54v-.59l14.17-4.66h.7v67.88c0 .66.15 1.16.44 1.49.3.33.75.56 1.34.69.6.13 1.35.22 2.28.25.92.03 2.01.12 3.27.25v1.09z"/><path d="m489.57 662.92v-.99c.79-.06 1.58-.15 2.38-.25s1.51-.26 2.13-.5c.63-.23 1.15-.54 1.58-.94s.65-.89.65-1.49v-33.99c0-.53-.05-.99-.15-1.39s-.38-.76-.85-1.09c-.59-.4-1.3-.79-2.13-1.19s-1.7-.76-2.63-1.09v-.6l13.38-4.36h.6v44.3c.13.66.41 1.14.84 1.44s.94.51 1.53.64c.6.13 1.24.22 1.93.25.7.03 1.37.11 2.03.25v.99h-21.29zm14.22-59.7c-1.03 1.03-2.29 1.54-3.81 1.54-1.46 0-2.71-.53-3.77-1.59s-1.58-2.31-1.58-3.77c0-1.52.51-2.77 1.54-3.77 1.02-.99 2.29-1.49 3.81-1.49s2.79.5 3.81 1.49c1.03.99 1.54 2.25 1.54 3.77s-.52 2.79-1.54 3.82z"/><path d="m547.46 655.14c-1.03 1.88-2.39 3.42-4.11 4.61s-3.68 2.05-5.9 2.58c-2.21.53-4.54.79-6.99.79-2.91 0-5.65-.26-8.23-.79-2.57-.53-4.95-1.29-7.13-2.28v-13.08h.79c.53 1.59 1.18 3.25 1.97 5.01.79 1.75 1.74 3.37 2.86 4.85 1.12 1.49 2.47 2.71 4.05 3.67s3.46 1.44 5.63 1.44c3.16 0 5.67-.91 7.55-2.73 1.87-1.82 2.81-4.61 2.81-8.37 0-2.05-.65-3.75-1.92-5.1-1.29-1.35-3.05-2.26-5.28-2.73-1.78-.33-3.49-.69-5.13-1.09s-3.13-.83-4.44-1.29c-2.5-.86-4.53-2.34-6.07-4.46-1.54-2.11-2.32-4.66-2.32-7.63 0-2.05.43-3.9 1.29-5.55s2.01-3.07 3.47-4.26c1.45-1.19 3.14-2.1 5.05-2.73 1.92-.63 3.96-.94 6.14-.94 2.77 0 5.22.25 7.33.74s4.13 1.11 6.05 1.83l1.19 12.29-.8.2c-.92-1.98-1.85-3.82-2.77-5.5s-1.95-3.14-3.07-4.36-2.39-2.16-3.81-2.82-3.06-.99-4.91-.99c-1.13 0-2.23.2-3.32.6s-2.05.97-2.87 1.73c-.83.76-1.5 1.72-2.03 2.87-.53 1.16-.79 2.49-.79 4.01 0 2.45.7 4.2 2.08 5.25 1.39 1.06 3.14 1.85 5.25 2.38 1.45.33 3.04.68 4.76 1.04s3.2.71 4.46 1.04c2.98.73 5.5 2.25 7.58 4.56s3.12 5.15 3.12 8.52c-.01 2.58-.52 4.81-1.54 6.69z"/><path d="m580.68 622.09h-15.07v26.06c0 3.37.73 5.81 2.18 7.33s3.33 2.28 5.65 2.28c1.91 0 3.5-.31 4.76-.94 1.25-.63 2.34-1.6 3.27-2.92l.59.3c-.4.99-.94 2.03-1.63 3.12-.7 1.09-1.62 2.08-2.77 2.97-1.16.89-2.51 1.59-4.06 2.08s-3.39.74-5.5.74c-1.39 0-2.72-.21-3.99-.64-1.28-.43-2.4-1.06-3.38-1.88s-1.78-1.75-2.4-2.77-.93-2.06-.93-3.12c0-6.21.03-12.11.1-17.69.06-5.58.1-10.55.1-14.91h-7.23v-1.09l14.28-13.58h.78v8.62h18.33z"/><path d="m383.94 257.78c69.58 0 125.98 56.4 125.98 125.98s-56.4 125.98-125.98 125.98-125.98-56.4-125.98-125.98 56.4-125.98 125.98-125.98m0-25c-40.33 0-78.24 15.7-106.76 44.22s-44.22 66.43-44.22 106.76 15.7 78.24 44.22 106.76 66.43 44.22 106.76 44.22 78.24-15.7 106.76-44.22 44.22-66.43 44.22-106.76-15.7-78.24-44.22-106.76c-28.52-28.51-66.44-44.22-106.76-44.22z"/></g></svg>